# xmcd CD database file
#
# Track frame offsets:
#	150
#	60377
#	88094
#	132446
#	175868
#
# Disc length: 3107 seconds
#
# Revision: 0
# Processed by: cddbd v1.4PL0 Copyright (c) Steve Scherf et al.
# Submitted via: CDex 1.50beta9
#
DISCID=3c0c2105
DTITLE=Stuart Jones - Late Into the Night
DYEAR=2000
DGENRE=New Age
TTITLE0=Late Into the Night
TTITLE1=Sensual High
TTITLE2=Walking on Beale Street
TTITLE3=Bobbie's Blues
TTITLE4=Midnight Blue
EXTD=YEAR: 2000
EXTT0=
EXTT1=
EXTT2=
EXTT3=
EXTT4=
PLAYORDER=
